<svg width="32" height="32" viewBox="0 0 32 32" fill="none" xmlns="http://www.w3.org/2000/svg">
<path d="M22.2667 25.3067H9.73335C9.17335 25.3067 8.54669 24.8667 8.36002 24.3333L2.84002 8.89333C2.05335 6.68 2.97335 6 4.86669 7.36L10.0667 11.08C10.9334 11.68 11.92 11.3733 12.2934 10.4L14.64 4.14667C15.3867 2.14667 16.6267 2.14667 17.3734 4.14667L19.72 10.4C20.0934 11.3733 21.08 11.68 21.9334 11.08L26.8134 7.6C28.8934 6.10667 29.8934 6.86667 29.04 9.28L23.6534 24.36C23.4534 24.8667 22.8267 25.3067 22.2667 25.3067Z" stroke="#8D7EF9" stroke-width="1.5" stroke-linecap="round" stroke-linejoin="round"/>
<path d="M8.66669 29.3333H23.3334" stroke="#8D7EF9" stroke-width="1.5" stroke-linecap="round" stroke-linejoin="round"/>
<path d="M12.6667 18.6667H19.3334" stroke="#8D7EF9" stroke-width="1.5" stroke-linecap="round" stroke-linejoin="round"/>
</svg>
