<?xml version="1.0" standalone="no"?>
<!DOCTYPE svg PUBLIC "-//W3C//DTD SVG 1.1//EN" "http://www.w3.org/Graphics/SVG/1.1/DTD/svg11.dtd">
<!--Generator: Xara Designer (www.xara.com), SVG filter version: 6.6.0.8-->
<svg fill="none" fill-rule="evenodd" stroke="black" stroke-width="0.501" stroke-linejoin="bevel" stroke-miterlimit="10" font-family="Times New Roman" font-size="16" style="font-variant-ligatures:none" xmlns:xlink="http://www.w3.org/1999/xlink" xmlns="http://www.w3.org/2000/svg" version="1.1" overflow="visible" width="11.55pt" height="11.55pt" viewBox="576.965 -782.955 11.55 11.55">
 <defs>
  <style type="text/css">@import url('https://themes.googleusercontent.com/fonts/css?family=Open Sans:600');</style>
 </defs>
 <g id="Layer 1" transform="scale(1 -1)">
  <path d="M 582.74,771.405 C 581.937,771.405 581.184,771.556 580.482,771.859 C 579.78,772.162 579.171,772.572 578.652,773.092 C 578.132,773.611 577.722,774.22 577.419,774.922 C 577.116,775.624 576.965,776.377 576.965,777.18 C 576.965,777.989 577.115,778.744 577.415,779.442 C 577.714,780.141 578.125,780.751 578.647,781.273 L 579.683,780.245 C 579.29,779.851 578.982,779.393 578.759,778.869 C 578.536,778.346 578.426,777.783 578.426,777.178 C 578.426,775.97 578.842,774.948 579.675,774.115 C 580.508,773.282 581.53,772.866 582.74,772.866 C 583.95,772.866 584.972,773.282 585.805,774.115 C 586.638,774.948 587.054,775.97 587.054,777.178 C 587.054,777.783 586.945,778.346 586.725,778.869 C 586.505,779.393 586.199,779.851 585.805,780.245 L 586.833,781.273 C 587.355,780.751 587.766,780.141 588.065,779.442 C 588.365,778.744 588.515,777.989 588.515,777.18 C 588.515,776.377 588.364,775.624 588.061,774.922 C 587.758,774.22 587.348,773.611 586.828,773.092 C 586.309,772.572 585.7,772.162 584.998,771.859 C 584.296,771.556 583.544,771.405 582.74,771.405 Z M 582.01,776.45 L 582.01,782.955 L 583.47,782.955 L 583.47,776.45 L 582.01,776.45 Z" stroke-linejoin="miter" stroke="none" fill="#3b81f6" marker-start="none" marker-end="none"/>
 </g>
</svg>
