<svg width="32" height="32" viewBox="0 0 32 32" fill="none" xmlns="http://www.w3.org/2000/svg">
<path fill-rule="evenodd" clip-rule="evenodd" d="M14.2858 3.42857C8.28953 3.42857 3.42857 8.28953 3.42857 14.2858C3.42857 20.2821 8.28953 25.1431 14.2858 25.1431C20.2821 25.1431 25.1431 20.2821 25.1431 14.2858C25.1431 8.28953 20.2821 3.42857 14.2858 3.42857ZM0 14.2858C0 6.39598 6.39598 0 14.2858 0C22.1757 0 28.5717 6.39598 28.5717 14.2858C28.5717 17.4058 27.5714 20.2921 25.8743 22.6417L31.331 28.0985C32.2238 28.9911 32.2238 30.4384 31.331 31.331C30.4384 32.2235 28.9911 32.2235 28.0985 31.331L22.6419 25.8743C20.2922 27.5714 17.4058 28.5717 14.2858 28.5717C6.39598 28.5717 0 22.1757 0 14.2858ZM13.6271 10.3485C13.395 9.88199 12.9274 9.57883 12.4067 9.55744C11.8861 9.53605 11.3951 9.79982 11.1255 10.2458L9.37481 13.1418H6.96206C6.17307 13.1418 5.53349 13.7814 5.53349 14.5704C5.53349 15.3594 6.17307 15.999 6.96206 15.999H10.1805C10.6806 15.999 11.1443 15.7374 11.4031 15.3094L12.2263 13.9476L14.3532 18.2231C14.5616 18.6421 14.9621 18.9325 15.4251 19.0003C15.8882 19.0682 16.3552 18.9049 16.675 18.5632L19.076 15.999H21.6094C22.3984 15.999 23.0379 15.3594 23.0379 14.5704C23.0379 13.7814 22.3984 13.1418 21.6094 13.1418H18.4566C18.0614 13.1418 17.6839 13.3055 17.4138 13.594L15.9952 15.1091L13.6271 10.3485Z" fill="#9B1200"/>
</svg>
