<svg width="32" height="32" viewBox="0 0 32 32" fill="none" xmlns="http://www.w3.org/2000/svg">
<rect width="32" height="32" rx="5" fill="#FF624E"/>
<path d="M12.5 7.25V9.875" stroke="white" stroke-width="1.5" stroke-miterlimit="10" stroke-linecap="round" stroke-linejoin="round"/>
<path d="M19.5 7.25V9.875" stroke="white" stroke-width="1.5" stroke-miterlimit="10" stroke-linecap="round" stroke-linejoin="round"/>
<path d="M8.5625 13.4537H23.4375" stroke="white" stroke-width="1.5" stroke-miterlimit="10" stroke-linecap="round" stroke-linejoin="round"/>
<path d="M23.875 12.9375V20.375C23.875 23 22.5625 24.75 19.5 24.75H12.5C9.4375 24.75 8.125 23 8.125 20.375V12.9375C8.125 10.3125 9.4375 8.5625 12.5 8.5625H19.5C22.5625 8.5625 23.875 10.3125 23.875 12.9375Z" stroke="white" stroke-width="1.5" stroke-miterlimit="10" stroke-linecap="round" stroke-linejoin="round"/>
<path d="M19.2329 17.4875H19.2407" stroke="white" stroke-width="2" stroke-linecap="round" stroke-linejoin="round"/>
<path d="M19.2329 20.1125H19.2407" stroke="white" stroke-width="2" stroke-linecap="round" stroke-linejoin="round"/>
<path d="M15.996 17.4875H16.0039" stroke="white" stroke-width="2" stroke-linecap="round" stroke-linejoin="round"/>
<path d="M15.996 20.1125H16.0039" stroke="white" stroke-width="2" stroke-linecap="round" stroke-linejoin="round"/>
<path d="M12.7575 17.4875H12.7654" stroke="white" stroke-width="2" stroke-linecap="round" stroke-linejoin="round"/>
<path d="M12.7575 20.1125H12.7654" stroke="white" stroke-width="2" stroke-linecap="round" stroke-linejoin="round"/>
</svg>
