<svg width="32" height="32" viewBox="0 0 32 32" fill="none" xmlns="http://www.w3.org/2000/svg">
<path d="M24.1867 28.8267C23.0134 29.1733 21.6267 29.3333 20 29.3333H12C10.3734 29.3333 8.98669 29.1733 7.81335 28.8267C8.10669 25.36 11.6667 22.6266 16 22.6266C20.3334 22.6266 23.8934 25.36 24.1867 28.8267Z" stroke="#292D32" stroke-width="1.5" stroke-linecap="round" stroke-linejoin="round"/>
<path d="M20 2.66667H12C5.33329 2.66667 2.66663 5.33334 2.66663 12V20C2.66663 25.04 4.18663 27.8 7.81329 28.8267C8.10663 25.36 11.6666 22.6266 16 22.6266C20.3333 22.6266 23.8933 25.36 24.1866 28.8267C27.8133 27.8 29.3333 25.04 29.3333 20V12C29.3333 5.33334 26.6666 2.66667 20 2.66667ZM16 18.8933C13.36 18.8933 11.2266 16.7467 11.2266 14.1067C11.2266 11.4667 13.36 9.33334 16 9.33334C18.64 9.33334 20.7733 11.4667 20.7733 14.1067C20.7733 16.7467 18.64 18.8933 16 18.8933Z" stroke="#292D32" stroke-width="1.5" stroke-linecap="round" stroke-linejoin="round"/>
<path d="M20.7734 14.1067C20.7734 16.7467 18.64 18.8933 16 18.8933C13.36 18.8933 11.2267 16.7467 11.2267 14.1067C11.2267 11.4667 13.36 9.33333 16 9.33333C18.64 9.33333 20.7734 11.4667 20.7734 14.1067Z" stroke="#292D32" stroke-width="1.5" stroke-linecap="round" stroke-linejoin="round"/>
</svg>
