<svg width="32" height="32" viewBox="0 0 32 32" fill="none" xmlns="http://www.w3.org/2000/svg">
<path d="M12.4133 19.6L14.4133 21.6L19.7467 16.2667" stroke="#CD457D" stroke-width="1.5" stroke-linecap="round" stroke-linejoin="round"/>
<path d="M13.3333 8H18.6667C21.3333 8 21.3333 6.66666 21.3333 5.33333C21.3333 2.66666 20 2.66666 18.6667 2.66666H13.3333C12 2.66666 10.6667 2.66666 10.6667 5.33333C10.6667 8 12 8 13.3333 8Z" stroke="#CD457D" stroke-width="1.5" stroke-miterlimit="10" stroke-linecap="round" stroke-linejoin="round"/>
<path d="M21.3333 5.36C25.7733 5.6 28 7.24 28 13.3333V21.3333C28 26.6667 26.6667 29.3333 20 29.3333H12C5.33333 29.3333 4 26.6667 4 21.3333V13.3333C4 7.25333 6.22667 5.6 10.6667 5.36" stroke="#CD457D" stroke-width="1.5" stroke-miterlimit="10" stroke-linecap="round" stroke-linejoin="round"/>
</svg>
